<?xml version="1.0" encoding="utf-8"?>
<!-- Generator: Adobe Illustrator 27.0.0, SVG Export Plug-In . SVG Version: 6.00 Build 0)  -->
<svg version="1.1" id="Layer_1" xmlns="http://www.w3.org/2000/svg" xmlns:xlink="http://www.w3.org/1999/xlink" x="0px" y="0px"
	 viewBox="0 0 19 17" style="enable-background:new 0 0 19 17;" xml:space="preserve">
<style type="text/css">
	.st0{fill:#AFAFAF;}
</style>
<path class="st0" d="M10.5,4L10,6.5c-0.1,0.5,0,1,0.4,1.5c0.3,0.4,0.8,0.6,1.3,0.6h4.8v0.9l-2.2,5.2H7.2c-0.2,0-0.3-0.1-0.3-0.3V7.6
	L10.5,4L10.5,4z M11.2,0.8L5.6,6.4C5.3,6.7,5.1,7.1,5.1,7.6v6.9c0,1.1,0.9,2,2,2h7.1c0.6,0,1.2-0.3,1.5-0.8l2.3-5.4
	c0.1-0.2,0.1-0.5,0.1-0.7V8.6c0-1-0.8-1.8-1.8-1.8h-4.8l0.8-4.1c0-0.2,0-0.4-0.1-0.6c-0.2-0.4-0.5-0.8-0.8-1.1L11.2,0.8z M2.5,6.9
	H0.8v9.6h1.8c0.5,0,0.9-0.4,0.9-0.9V7.8C3.4,7.3,3,6.9,2.5,6.9z"/>
</svg>
