<?xml version="1.0" encoding="UTF-8"?><svg id="Layer_1" xmlns="http://www.w3.org/2000/svg" viewBox="0 0 340 340"><defs><style>.cls-1{fill:#f3f3f3;}.cls-2{fill:#fff;}.cls-3{fill:#ddd;}</style></defs><path class="cls-2" d="M180.99,.1C232.63,.1,284.27,.14,335.91,0c3.42,0,4.1,.67,4.09,4.1-.12,110.6-.12,221.21,0,331.81,0,3.42-.67,4.1-4.09,4.09-111.94-.12-223.87-.1-335.81-.1C.1,227.97,.12,116.03,0,4.1,0,.67,.67,0,4.09,0,55.73,.14,107.37,.1,159.01,.1c.37,.45,.44,.94,.22,1.47-3.01,3.06-7.13,2.36-10.77,2.88-28.4,4.09-54.42,14.12-77.41,31.33C32.96,64.3,10.71,102.54,4.96,149.55c-5.94,48.62,7.72,91.99,39.77,129.14,27.98,32.43,63.62,51.12,106.1,55.83,48.09,5.32,91.11-7.49,127.86-39.27,33.78-29.22,52.69-66.43,56.77-110.89,4.27-46.47-9.34-87.56-39.28-123.05-27.5-32.6-63.07-50.86-105.14-56.89-3.47-.5-7.43,.16-10.28-2.82-.22-.54-.14-1.03,.22-1.48Z"/><path class="cls-1" d="M180.99,.1c0,.32,.01,.65,.02,.97-.54,1.11-1.43,1.85-2.64,2.01-5.58,.73-11.17,.73-16.74,0-1.21-.16-2.1-.89-2.64-2.01,0-.32,.01-.65,.02-.97h21.99Z"/><path class="cls-3" d="M158.99,1.07c7.34,0,14.68,0,22.02,0,27.3,1.58,52.69,9.48,75.95,23.76,46.35,28.45,73.46,70.06,80.45,123.68,6.41,49.22-7.36,93.29-39.71,131.19-26.69,31.28-60.59,50.38-101.12,56.4-50.93,7.56-96.76-4.87-136.34-38.44-27.83-23.61-45.88-53.38-54.34-88.75C-5.05,163.08,2.2,119.84,26.98,79.93,51.33,40.72,86.73,16.22,131.38,5.11c9.02-2.24,18.21-3.99,27.6-4.04Z"/><path class="cls-2" d="M168.19,238c-41.28,1.55-76.13-34.16-76.2-75.43-.07-41.65,35.29-76.16,76.55-75.9,40.85,.26,75.55,34.86,75.48,75.99-.07,41.19-35.13,76.78-75.83,75.33Z"/><path class="cls-2" d="M170.5,251.95c14.99,0,29.98-.04,44.97,0,26.97,.09,48.44,11.33,65.24,32.15,2,2.48,.88,3.79-.82,5.4-9.99,9.44-21.19,17.16-33.31,23.58-27.17,14.39-56.26,20.62-86.79,18.64-36.49-2.37-68.9-15.56-96.79-39.44-1.26-1.08-2.36-2.35-3.59-3.48-1.7-1.55-1.56-2.88-.11-4.68,16.81-20.76,38.23-32.11,65.23-32.18,15.32-.03,30.65,0,45.97,0Z"/></svg>